<svg width="29" height="29" viewBox="0 0 29 29" fill="none" xmlns="http://www.w3.org/2000/svg">
<circle cx="14.5159" cy="14.4998" r="12.6614" stroke="#F2F0EB" stroke-width="2"/>
<path fill-rule="evenodd" clip-rule="evenodd" d="M4.99832 12.2275C4.98325 12.4423 4.97559 12.6592 4.97559 12.8779C4.97559 12.8831 4.97559 12.8884 4.9756 12.8936C4.97596 12.6709 4.9836 12.4487 4.99832 12.2275ZM12.6671 21.9357C13.1596 22.017 13.6653 22.0593 14.181 22.0593C14.6465 22.0593 15.104 22.0248 15.551 21.9583V15.5943H18.1723L18.5841 12.9316H15.551V11.4771C15.551 10.3715 15.9142 9.38969 16.948 9.38969H18.6092V7.06677L18.5958 7.06495C18.2987 7.02461 17.6823 6.94092 16.5326 6.94092C14.0951 6.94092 12.6671 8.22781 12.6671 11.1606V12.9316H10.1608V15.5943H12.6671V21.9357Z" fill="#F2F0EB"/>
</svg>
