<svg width="102" height="102" viewBox="0 0 102 102" fill="none" xmlns="http://www.w3.org/2000/svg">
<path fill-rule="evenodd" clip-rule="evenodd" d="M12.236 2C9.52121 2 6.91765 3.07843 4.99804 4.99804C3.07843 6.91765 2 9.52121 2 12.236V23.4719C2 24.0242 1.55228 24.4719 1 24.4719C0.447715 24.4719 0 24.0242 0 23.4719V12.236C0 8.99078 1.28914 5.87851 3.58383 3.58383C5.87851 1.28914 8.99078 0 12.236 0H23.4719C24.0242 0 24.4719 0.447715 24.4719 1C24.4719 1.55228 24.0242 2 23.4719 2H12.236Z" fill="#A89CFD"/>
<path fill-rule="evenodd" clip-rule="evenodd" d="M77.5283 1C77.5283 0.447715 77.976 0 78.5283 0H89.7643C93.0095 0 96.1217 1.28914 98.4164 3.58383C100.711 5.87851 102 8.99078 102 12.236V23.4719C102 24.0242 101.553 24.4719 101 24.4719C100.448 24.4719 100 24.0242 100 23.4719V12.236C100 9.52121 98.9218 6.91765 97.0022 4.99804C95.0826 3.07843 92.479 2 89.7643 2H78.5283C77.976 2 77.5283 1.55228 77.5283 1Z" fill="#A89CFD"/>
<path fill-rule="evenodd" clip-rule="evenodd" d="M101 77.5273C101.553 77.5273 102 77.9751 102 78.5273V89.7633C102 93.0085 100.711 96.1207 98.4164 98.4154C96.1217 100.71 93.0095 101.999 89.7643 101.999H78.5283C77.976 101.999 77.5283 101.552 77.5283 100.999C77.5283 100.447 77.976 99.9993 78.5283 99.9993H89.7643C92.479 99.9993 95.0826 98.9208 97.0022 97.0012C98.9218 95.0816 100 92.478 100 89.7633V78.5273C100 77.9751 100.448 77.5273 101 77.5273Z" fill="#A89CFD"/>
<path fill-rule="evenodd" clip-rule="evenodd" d="M1 77.5273C1.55228 77.5273 2 77.9751 2 78.5273V89.7633C2 92.478 3.07843 95.0816 4.99804 97.0012C6.91765 98.9208 9.52121 99.9993 12.236 99.9993H23.4719C24.0242 99.9993 24.4719 100.447 24.4719 100.999C24.4719 101.552 24.0242 101.999 23.4719 101.999H12.236C8.99078 101.999 5.87851 100.71 3.58383 98.4154C1.28914 96.1207 0 93.0085 0 89.7633V78.5273C0 77.9751 0.447715 77.5273 1 77.5273Z" fill="#A89CFD"/>
<path d="M42.5377 62.3844C42.5377 60.5612 42.7486 58.8943 43.1704 57.3837C43.5922 55.873 44.2777 54.4926 45.2267 53.2425C46.1758 51.9402 47.4675 50.7942 49.102 49.8045C49.9984 49.2836 51.0529 48.7106 52.2656 48.0855C53.4782 47.4083 54.6382 46.627 55.7454 45.7414C56.8527 44.8559 57.7754 43.8141 58.5135 42.616C59.3044 41.4179 59.6998 40.0114 59.6998 38.3966C59.6998 36.6776 59.278 35.2451 58.4344 34.0992C57.5908 32.9011 56.5099 32.0155 55.1918 31.4425C53.9264 30.8174 52.5292 30.5049 51.0001 30.5049C49.3657 30.5049 47.863 30.8435 46.4921 31.5207C45.1213 32.1978 43.9349 33.0573 42.9332 34.0992C41.9314 35.141 41.0878 36.2349 40.4023 37.3809L34.708 33.5522C35.6571 31.4165 36.9752 29.5933 38.6624 28.0827C40.3496 26.5721 42.2741 25.4261 44.4358 24.6447C46.5976 23.8633 48.8648 23.4727 51.2374 23.4727C53.1882 23.4727 55.1127 23.7852 57.0108 24.4103C58.9617 24.9833 60.7016 25.8949 62.2306 27.145C63.7597 28.3952 64.9724 29.984 65.8687 31.9113C66.8177 33.7866 67.2923 36.0525 67.2923 38.7092C67.2923 40.5323 67.055 42.1211 66.5805 43.4755C66.1587 44.7777 65.526 45.9498 64.6824 46.9916C63.8388 48.0334 62.8633 48.971 61.7561 49.8045C60.6489 50.5858 59.4362 51.3412 58.1181 52.0704C56.7999 52.8518 55.5082 53.6592 54.2428 54.4926C52.9773 55.274 51.9228 56.2637 51.0792 57.4618C50.2356 58.6599 49.8138 60.3008 49.8138 62.3844H42.5377ZM42.775 79.6524V69.8073H49.972V79.6524H42.775Z" fill="#A89CFD"/>
</svg>
