<svg width="28" height="29" viewBox="0 0 28 29" fill="none" xmlns="http://www.w3.org/2000/svg">
<path d="M11.5278 8.10693C9.4643 8.10693 7.76855 9.8004 7.76855 11.8662V17.1327C7.76855 19.1962 9.46203 20.892 11.5278 20.892H16.7943C18.8578 20.892 20.5536 19.1985 20.5536 17.1327V11.8662C20.5536 9.80267 18.8601 8.10693 16.7943 8.10693H11.5278ZM11.5278 9.26921H16.7943C18.2313 9.26921 19.3913 10.4292 19.3913 11.8662V17.1327C19.3913 18.5697 18.2313 19.7297 16.7943 19.7297H11.5278C10.0908 19.7297 8.93083 18.5697 8.93083 17.1327V11.8662C8.93083 10.4292 10.0908 9.26921 11.5278 9.26921ZM17.5934 10.5404C17.3006 10.5404 17.0668 10.7743 17.0668 11.0671C17.0668 11.3599 17.3006 11.5938 17.5934 11.5938C17.8862 11.5938 18.1201 11.3599 18.1201 11.0671C18.1201 10.7743 17.8862 10.5404 17.5934 10.5404ZM14.1611 11.0126C12.2429 11.0126 10.6742 12.5812 10.6742 14.4994C10.6742 16.4177 12.2429 17.9863 14.1611 17.9863C16.0793 17.9863 17.6479 16.4177 17.6479 14.4994C17.6479 12.5812 16.0793 11.0126 14.1611 11.0126ZM14.1611 12.1749C15.4527 12.1749 16.4856 13.2078 16.4856 14.4994C16.4856 15.7911 15.4527 16.824 14.1611 16.824C12.8694 16.824 11.8365 15.7911 11.8365 14.4994C11.8365 13.2078 12.8694 12.1749 14.1611 12.1749Z" fill="white"/>
<circle cx="14.1614" cy="14.4998" r="12.6614" stroke="#F2F0EB" stroke-width="2"/>
</svg>
