<svg width="29" height="29" viewBox="0 0 29 29" fill="none" xmlns="http://www.w3.org/2000/svg">
<path d="M14.9 8.77783C14.7992 8.77784 14.7025 8.81784 14.6311 8.88906C14.5598 8.96028 14.5196 9.05689 14.5194 9.15771C14.5194 9.15771 14.5152 11.0133 14.5112 12.8732C14.5092 13.8031 14.5068 14.734 14.5053 15.4349C14.5038 16.1358 14.503 16.5793 14.503 16.6162C14.503 17.3071 13.8755 17.8718 13.1605 17.8718C12.4511 17.8718 11.8848 17.3047 11.8848 16.5954C11.8848 15.886 12.4511 15.3197 13.1605 15.3197C13.1845 15.3197 13.2329 15.3276 13.3158 15.3375C13.3693 15.3439 13.4235 15.3389 13.4749 15.3228C13.5263 15.3068 13.5737 15.2799 13.6139 15.2442C13.6542 15.2084 13.6864 15.1645 13.7084 15.1154C13.7305 15.0662 13.7418 15.013 13.7418 14.9591V13.3601C13.7418 13.2633 13.7049 13.1701 13.6386 13.0995C13.5723 13.029 13.4816 12.9863 13.385 12.9802C13.3256 12.9765 13.251 12.9691 13.1605 12.9691C11.1624 12.9691 9.53418 14.5973 9.53418 16.5954C9.53418 18.5934 11.1624 20.2216 13.1605 20.2216C15.1585 20.2216 16.7867 18.5934 16.7867 16.5954V13.1512C17.3404 13.594 18.0304 13.8745 18.7924 13.8745C18.8963 13.8745 18.9952 13.8684 19.0898 13.8597C19.1843 13.8509 19.2721 13.8072 19.3361 13.7371C19.4 13.667 19.4355 13.5755 19.4354 13.4805V11.7031C19.4355 11.6069 19.3991 11.5142 19.3336 11.4437C19.2681 11.3732 19.1783 11.3302 19.0823 11.3232C17.8854 11.2373 16.9313 10.305 16.8068 9.11905C16.797 9.02547 16.753 8.93881 16.6831 8.8758C16.6132 8.81279 16.5225 8.77789 16.4284 8.77783H14.9ZM15.2799 9.53907H16.1482C16.4248 10.7946 17.4059 11.7521 18.6742 11.9923V13.0828C17.8601 13.0415 17.1451 12.6354 16.7243 11.9952C16.6793 11.9267 16.6134 11.8746 16.5363 11.8466C16.4593 11.8185 16.3753 11.8161 16.2968 11.8397C16.2183 11.8632 16.1494 11.9115 16.1006 11.9773C16.0517 12.0431 16.0254 12.1229 16.0255 12.2049V16.5954C16.0255 18.182 14.7471 19.4604 13.1605 19.4604C11.5739 19.4604 10.2954 18.182 10.2954 16.5954C10.2954 15.0727 11.4832 13.8641 12.9806 13.7667V14.5949C11.9477 14.691 11.1236 15.5385 11.1236 16.5954C11.1236 17.716 12.0398 18.633 13.1605 18.633C14.2754 18.633 15.2643 17.7553 15.2643 16.6162C15.2643 16.6348 15.265 16.1373 15.2665 15.4364C15.268 14.7355 15.2704 13.8046 15.2724 12.8747C15.276 11.2049 15.2792 9.86229 15.2799 9.53907Z" fill="white"/>
<circle cx="14.4847" cy="14.4998" r="12.6614" stroke="#F2F0EB" stroke-width="2"/>
</svg>
