<svg width="19" height="17" viewBox="0 0 19 17" fill="none" xmlns="http://www.w3.org/2000/svg">
<path d="M8.9015 0.69994C9.07536 0.164871 9.83234 0.164872 10.0062 0.699941L11.6705 5.82213C11.7482 6.06142 11.9712 6.22343 12.2228 6.22343H17.6086C18.1712 6.22343 18.4051 6.94336 17.95 7.27405L13.5928 10.4397C13.3892 10.5876 13.3041 10.8498 13.3818 11.0891L15.0461 16.2112C15.22 16.7463 14.6076 17.1913 14.1524 16.8606L9.79521 13.6949C9.59166 13.547 9.31603 13.547 9.11248 13.6949L4.75528 16.8606C4.30013 17.1913 3.68772 16.7463 3.86157 16.2112L5.52587 11.0891C5.60362 10.8498 5.51845 10.5876 5.3149 10.4397L0.957703 7.27405C0.502546 6.94336 0.736466 6.22343 1.29907 6.22343H6.68486C6.93646 6.22343 7.15945 6.06142 7.2372 5.82213L8.9015 0.69994Z" fill="#FFD029"/>
</svg>
